<mxfile host="app.diagrams.net" modified="2023-11-27T15:01:12.094Z" agent="Mozilla/5.0 (Windows NT 10.0; Win64; x64) AppleWebKit/537.36 (KHTML, like Gecko) Chrome/118.0.0.0 Safari/537.36 OPR/104.0.0.0" etag="XktUFx0e1ZJTATNfI7ez" version="22.1.4" type="device">
  <diagram name="Página-1" id="hyFOOFvA3L4vlTbARbdD">
    <mxGraphModel dx="1032" dy="584" grid="1" gridSize="10" guides="1" tooltips="1" connect="1" arrows="1" fold="1" page="1" pageScale="1" pageWidth="827" pageHeight="1169" math="0" shadow="0">
      <root>
        <mxCell id="0" />
        <mxCell id="1" parent="0" />
        <mxCell id="aVkqmfyQWUKvA065QXOJ-1" value="Usuário" style="swimlane;fontStyle=1;align=center;verticalAlign=top;childLayout=stackLayout;horizontal=1;startSize=26;horizontalStack=0;resizeParent=1;resizeParentMax=0;resizeLast=0;collapsible=1;marginBottom=0;whiteSpace=wrap;html=1;" parent="1" vertex="1">
          <mxGeometry x="492.36" y="40" width="160" height="100" as="geometry">
            <mxRectangle x="270" y="190" width="100" height="30" as="alternateBounds" />
          </mxGeometry>
        </mxCell>
        <mxCell id="aVkqmfyQWUKvA065QXOJ-2" value="- Id&lt;br&gt;- Nome&lt;br&gt;- E-mail&lt;br&gt;- Senha" style="text;strokeColor=none;fillColor=none;align=left;verticalAlign=top;spacingLeft=4;spacingRight=4;overflow=hidden;rotatable=0;points=[[0,0.5],[1,0.5]];portConstraint=eastwest;whiteSpace=wrap;html=1;" parent="aVkqmfyQWUKvA065QXOJ-1" vertex="1">
          <mxGeometry y="26" width="160" height="74" as="geometry" />
        </mxCell>
        <mxCell id="k0bJGaQDSedaESL4fua4-7" value="" style="endArrow=block;endSize=16;endFill=1;html=1;rounded=0;entryX=1;entryY=0.5;entryDx=0;entryDy=0;exitX=0.5;exitY=0;exitDx=0;exitDy=0;" parent="1" source="k0bJGaQDSedaESL4fua4-38" target="aVkqmfyQWUKvA065QXOJ-2" edge="1">
          <mxGeometry width="160" relative="1" as="geometry">
            <mxPoint x="732.36" y="210" as="sourcePoint" />
            <mxPoint x="712.36" y="420" as="targetPoint" />
            <Array as="points">
              <mxPoint x="731.36" y="102" />
            </Array>
          </mxGeometry>
        </mxCell>
        <mxCell id="k0bJGaQDSedaESL4fua4-8" value="" style="endArrow=block;endSize=16;endFill=1;html=1;rounded=0;entryX=0;entryY=0.5;entryDx=0;entryDy=0;exitX=0.5;exitY=0;exitDx=0;exitDy=0;" parent="1" source="k0bJGaQDSedaESL4fua4-83" target="aVkqmfyQWUKvA065QXOJ-2" edge="1">
          <mxGeometry width="160" relative="1" as="geometry">
            <mxPoint x="402.36" y="210" as="sourcePoint" />
            <mxPoint x="312.36" y="93" as="targetPoint" />
            <Array as="points">
              <mxPoint x="402.36" y="102" />
            </Array>
          </mxGeometry>
        </mxCell>
        <mxCell id="k0bJGaQDSedaESL4fua4-9" value="Propriedade" style="swimlane;fontStyle=1;align=center;verticalAlign=top;childLayout=stackLayout;horizontal=1;startSize=26;horizontalStack=0;resizeParent=1;resizeParentMax=0;resizeLast=0;collapsible=1;marginBottom=0;whiteSpace=wrap;html=1;" parent="1" vertex="1">
          <mxGeometry x="652.36" y="370" width="160" height="130" as="geometry" />
        </mxCell>
        <mxCell id="k0bJGaQDSedaESL4fua4-10" value="- Id&lt;br&gt;- Nome&lt;br&gt;- Rodovia&lt;br&gt;- Estado&lt;br&gt;- Cidade&lt;br&gt;- Bairro?" style="text;strokeColor=none;fillColor=none;align=left;verticalAlign=top;spacingLeft=4;spacingRight=4;overflow=hidden;rotatable=0;points=[[0,0.5],[1,0.5]];portConstraint=eastwest;whiteSpace=wrap;html=1;" parent="k0bJGaQDSedaESL4fua4-9" vertex="1">
          <mxGeometry y="26" width="160" height="104" as="geometry" />
        </mxCell>
        <mxCell id="k0bJGaQDSedaESL4fua4-22" value="Cadastrou" style="endArrow=classic;html=1;endSize=12;startArrow=diamondThin;startSize=14;startFill=0;edgeStyle=orthogonalEdgeStyle;rounded=0;exitX=1;exitY=0.5;exitDx=0;exitDy=0;entryX=0;entryY=0.5;entryDx=0;entryDy=0;endFill=1;" parent="1" source="k0bJGaQDSedaESL4fua4-83" edge="1">
          <mxGeometry x="0.0417" relative="1" as="geometry">
            <mxPoint x="508.36" y="228" as="sourcePoint" />
            <mxPoint x="652.36" y="228" as="targetPoint" />
            <Array as="points" />
            <mxPoint as="offset" />
          </mxGeometry>
        </mxCell>
        <mxCell id="k0bJGaQDSedaESL4fua4-23" value="1" style="edgeLabel;resizable=0;html=1;align=left;verticalAlign=top;" parent="k0bJGaQDSedaESL4fua4-22" connectable="0" vertex="1">
          <mxGeometry x="-1" relative="1" as="geometry">
            <mxPoint x="9" y="-28" as="offset" />
          </mxGeometry>
        </mxCell>
        <mxCell id="k0bJGaQDSedaESL4fua4-26" value="*" style="edgeLabel;resizable=0;html=1;align=left;verticalAlign=top;" parent="1" connectable="0" vertex="1">
          <mxGeometry x="633.36" y="200" as="geometry">
            <mxPoint x="2" y="2" as="offset" />
          </mxGeometry>
        </mxCell>
        <mxCell id="k0bJGaQDSedaESL4fua4-38" value="Proprietário" style="swimlane;fontStyle=1;align=center;verticalAlign=top;childLayout=stackLayout;horizontal=1;startSize=26;horizontalStack=0;resizeParent=1;resizeParentMax=0;resizeLast=0;collapsible=1;marginBottom=0;whiteSpace=wrap;html=1;" parent="1" vertex="1">
          <mxGeometry x="652.36" y="214" width="160" height="26" as="geometry">
            <mxRectangle x="489" y="160" width="100" height="30" as="alternateBounds" />
          </mxGeometry>
        </mxCell>
        <mxCell id="k0bJGaQDSedaESL4fua4-43" value="Projeto" style="swimlane;fontStyle=1;align=center;verticalAlign=top;childLayout=stackLayout;horizontal=1;startSize=26;horizontalStack=0;resizeParent=1;resizeParentMax=0;resizeLast=0;collapsible=1;marginBottom=0;whiteSpace=wrap;html=1;" parent="1" vertex="1">
          <mxGeometry x="313.36" y="380" width="160" height="110" as="geometry" />
        </mxCell>
        <mxCell id="k0bJGaQDSedaESL4fua4-44" value="- Id&lt;br&gt;- Nome&lt;br&gt;- Descriçao&lt;br&gt;- Status&lt;br&gt;- Resultado" style="text;strokeColor=none;fillColor=none;align=left;verticalAlign=top;spacingLeft=4;spacingRight=4;overflow=hidden;rotatable=0;points=[[0,0.5],[1,0.5]];portConstraint=eastwest;whiteSpace=wrap;html=1;" parent="k0bJGaQDSedaESL4fua4-43" vertex="1">
          <mxGeometry y="26" width="160" height="84" as="geometry" />
        </mxCell>
        <mxCell id="k0bJGaQDSedaESL4fua4-51" value="Formulário" style="swimlane;fontStyle=1;align=center;verticalAlign=top;childLayout=stackLayout;horizontal=1;startSize=26;horizontalStack=0;resizeParent=1;resizeParentMax=0;resizeLast=0;collapsible=1;marginBottom=0;whiteSpace=wrap;html=1;" parent="1" vertex="1">
          <mxGeometry x="612.36" y="632" width="160" height="26" as="geometry" />
        </mxCell>
        <mxCell id="k0bJGaQDSedaESL4fua4-55" value="CampoFormulário" style="swimlane;fontStyle=1;align=center;verticalAlign=top;childLayout=stackLayout;horizontal=1;startSize=26;horizontalStack=0;resizeParent=1;resizeParentMax=0;resizeLast=0;collapsible=1;marginBottom=0;whiteSpace=wrap;html=1;" parent="1" vertex="1">
          <mxGeometry x="612.36" y="810" width="160" height="52" as="geometry" />
        </mxCell>
        <mxCell id="k0bJGaQDSedaESL4fua4-56" value="- Valor" style="text;strokeColor=none;fillColor=none;align=left;verticalAlign=top;spacingLeft=4;spacingRight=4;overflow=hidden;rotatable=0;points=[[0,0.5],[1,0.5]];portConstraint=eastwest;whiteSpace=wrap;html=1;" parent="k0bJGaQDSedaESL4fua4-55" vertex="1">
          <mxGeometry y="26" width="160" height="26" as="geometry" />
        </mxCell>
        <mxCell id="k0bJGaQDSedaESL4fua4-59" value="EtapaProjeto" style="swimlane;fontStyle=1;align=center;verticalAlign=top;childLayout=stackLayout;horizontal=1;startSize=26;horizontalStack=0;resizeParent=1;resizeParentMax=0;resizeLast=0;collapsible=1;marginBottom=0;whiteSpace=wrap;html=1;" parent="1" vertex="1">
          <mxGeometry x="313.36" y="610" width="160" height="70" as="geometry" />
        </mxCell>
        <mxCell id="k0bJGaQDSedaESL4fua4-60" value="- Resultado&lt;br&gt;- Status" style="text;strokeColor=none;fillColor=none;align=left;verticalAlign=top;spacingLeft=4;spacingRight=4;overflow=hidden;rotatable=0;points=[[0,0.5],[1,0.5]];portConstraint=eastwest;whiteSpace=wrap;html=1;" parent="k0bJGaQDSedaESL4fua4-59" vertex="1">
          <mxGeometry y="26" width="160" height="44" as="geometry" />
        </mxCell>
        <mxCell id="k0bJGaQDSedaESL4fua4-63" value="Campo" style="swimlane;fontStyle=1;align=center;verticalAlign=top;childLayout=stackLayout;horizontal=1;startSize=26;horizontalStack=0;resizeParent=1;resizeParentMax=0;resizeLast=0;collapsible=1;marginBottom=0;whiteSpace=wrap;html=1;" parent="1" vertex="1">
          <mxGeometry x="313.36" y="1000" width="160" height="52" as="geometry" />
        </mxCell>
        <mxCell id="k0bJGaQDSedaESL4fua4-64" value="- Nome" style="text;strokeColor=none;fillColor=none;align=left;verticalAlign=top;spacingLeft=4;spacingRight=4;overflow=hidden;rotatable=0;points=[[0,0.5],[1,0.5]];portConstraint=eastwest;whiteSpace=wrap;html=1;" parent="k0bJGaQDSedaESL4fua4-63" vertex="1">
          <mxGeometry y="26" width="160" height="26" as="geometry" />
        </mxCell>
        <mxCell id="k0bJGaQDSedaESL4fua4-67" value="CampoEtapa" style="swimlane;fontStyle=1;align=center;verticalAlign=top;childLayout=stackLayout;horizontal=1;startSize=26;horizontalStack=0;resizeParent=1;resizeParentMax=0;resizeLast=0;collapsible=1;marginBottom=0;whiteSpace=wrap;html=1;" parent="1" vertex="1">
          <mxGeometry x="313.36" y="810" width="160" height="52" as="geometry" />
        </mxCell>
        <mxCell id="k0bJGaQDSedaESL4fua4-68" value="- Multiplicador" style="text;strokeColor=none;fillColor=none;align=left;verticalAlign=top;spacingLeft=4;spacingRight=4;overflow=hidden;rotatable=0;points=[[0,0.5],[1,0.5]];portConstraint=eastwest;whiteSpace=wrap;html=1;" parent="k0bJGaQDSedaESL4fua4-67" vertex="1">
          <mxGeometry y="26" width="160" height="26" as="geometry" />
        </mxCell>
        <mxCell id="k0bJGaQDSedaESL4fua4-77" value="" style="endArrow=classic;html=1;endSize=12;startArrow=diamondThin;startSize=14;startFill=0;edgeStyle=orthogonalEdgeStyle;rounded=0;entryX=0.5;entryY=0;entryDx=0;entryDy=0;exitX=0.5;exitY=1;exitDx=0;exitDy=0;endFill=1;" parent="1" source="k0bJGaQDSedaESL4fua4-38" target="k0bJGaQDSedaESL4fua4-9" edge="1">
          <mxGeometry x="0.0417" relative="1" as="geometry">
            <mxPoint x="732.0400000000003" y="270.13199999999995" as="sourcePoint" />
            <mxPoint x="827.36" y="320" as="targetPoint" />
            <Array as="points" />
            <mxPoint as="offset" />
          </mxGeometry>
        </mxCell>
        <mxCell id="k0bJGaQDSedaESL4fua4-78" value="1" style="edgeLabel;resizable=0;html=1;align=left;verticalAlign=top;" parent="k0bJGaQDSedaESL4fua4-77" connectable="0" vertex="1">
          <mxGeometry x="-1" relative="1" as="geometry">
            <mxPoint x="-19" as="offset" />
          </mxGeometry>
        </mxCell>
        <mxCell id="k0bJGaQDSedaESL4fua4-79" value="*" style="edgeLabel;resizable=0;html=1;align=left;verticalAlign=top;" parent="1" connectable="0" vertex="1">
          <mxGeometry x="723.0399999999998" y="280.13199999999995" as="geometry">
            <mxPoint x="-8" y="61" as="offset" />
          </mxGeometry>
        </mxCell>
        <mxCell id="k0bJGaQDSedaESL4fua4-80" value="Etapa" style="swimlane;fontStyle=1;align=center;verticalAlign=top;childLayout=stackLayout;horizontal=1;startSize=26;horizontalStack=0;resizeParent=1;resizeParentMax=0;resizeLast=0;collapsible=1;marginBottom=0;whiteSpace=wrap;html=1;" parent="1" vertex="1">
          <mxGeometry x="14" y="620" width="160" height="50" as="geometry" />
        </mxCell>
        <mxCell id="k0bJGaQDSedaESL4fua4-81" value="- Nome" style="text;strokeColor=none;fillColor=none;align=left;verticalAlign=top;spacingLeft=4;spacingRight=4;overflow=hidden;rotatable=0;points=[[0,0.5],[1,0.5]];portConstraint=eastwest;whiteSpace=wrap;html=1;" parent="k0bJGaQDSedaESL4fua4-80" vertex="1">
          <mxGeometry y="26" width="160" height="24" as="geometry" />
        </mxCell>
        <mxCell id="k0bJGaQDSedaESL4fua4-83" value="Administrador" style="swimlane;fontStyle=1;align=center;verticalAlign=top;childLayout=stackLayout;horizontal=1;startSize=26;horizontalStack=0;resizeParent=1;resizeParentMax=0;resizeLast=0;collapsible=1;marginBottom=0;whiteSpace=wrap;html=1;" parent="1" vertex="1">
          <mxGeometry x="323.36" y="214" width="160" height="26" as="geometry">
            <mxRectangle x="489" y="160" width="100" height="30" as="alternateBounds" />
          </mxGeometry>
        </mxCell>
        <mxCell id="k0bJGaQDSedaESL4fua4-86" value="" style="endArrow=classic;html=1;endSize=12;startArrow=diamondThin;startSize=14;startFill=0;edgeStyle=orthogonalEdgeStyle;rounded=0;exitX=0;exitY=0.5;exitDx=0;exitDy=0;entryX=1;entryY=0.5;entryDx=0;entryDy=0;endFill=1;" parent="1" source="k0bJGaQDSedaESL4fua4-10" target="k0bJGaQDSedaESL4fua4-44" edge="1">
          <mxGeometry relative="1" as="geometry">
            <mxPoint x="463.36" y="530" as="sourcePoint" />
            <mxPoint x="583.36" y="630" as="targetPoint" />
          </mxGeometry>
        </mxCell>
        <mxCell id="k0bJGaQDSedaESL4fua4-87" value="1" style="edgeLabel;resizable=0;html=1;align=left;verticalAlign=top;" parent="k0bJGaQDSedaESL4fua4-86" connectable="0" vertex="1">
          <mxGeometry x="-1" relative="1" as="geometry">
            <mxPoint x="-19" y="-28" as="offset" />
          </mxGeometry>
        </mxCell>
        <mxCell id="k0bJGaQDSedaESL4fua4-89" value="*" style="edgeLabel;resizable=0;html=1;align=left;verticalAlign=top;" parent="1" connectable="0" vertex="1">
          <mxGeometry x="492.36" y="420" as="geometry" />
        </mxCell>
        <mxCell id="k0bJGaQDSedaESL4fua4-92" value="" style="endArrow=classic;html=1;endSize=12;startArrow=diamondThin;startSize=14;startFill=0;edgeStyle=orthogonalEdgeStyle;rounded=0;exitX=1.013;exitY=0.205;exitDx=0;exitDy=0;entryX=0;entryY=0.5;entryDx=0;entryDy=0;exitPerimeter=0;endFill=1;" parent="1" source="k0bJGaQDSedaESL4fua4-60" target="k0bJGaQDSedaESL4fua4-51" edge="1">
          <mxGeometry relative="1" as="geometry">
            <mxPoint x="577.36" y="720" as="sourcePoint" />
            <mxPoint x="398.36" y="720" as="targetPoint" />
          </mxGeometry>
        </mxCell>
        <mxCell id="k0bJGaQDSedaESL4fua4-95" value="" style="endArrow=none;html=1;endSize=12;startArrow=diamondThin;startSize=14;startFill=0;edgeStyle=orthogonalEdgeStyle;rounded=0;exitX=0.5;exitY=1;exitDx=0;exitDy=0;entryX=0.5;entryY=0;entryDx=0;entryDy=0;endFill=0;" parent="1" source="k0bJGaQDSedaESL4fua4-51" target="k0bJGaQDSedaESL4fua4-55" edge="1">
          <mxGeometry relative="1" as="geometry">
            <mxPoint x="563.36" y="740" as="sourcePoint" />
            <mxPoint x="734.36" y="740" as="targetPoint" />
          </mxGeometry>
        </mxCell>
        <mxCell id="k0bJGaQDSedaESL4fua4-96" value="1" style="edgeLabel;resizable=0;html=1;align=left;verticalAlign=top;" parent="k0bJGaQDSedaESL4fua4-95" connectable="0" vertex="1">
          <mxGeometry x="-1" relative="1" as="geometry">
            <mxPoint x="-19" as="offset" />
          </mxGeometry>
        </mxCell>
        <mxCell id="k0bJGaQDSedaESL4fua4-98" value="" style="endArrow=diamondThin;html=1;endSize=12;startArrow=classic;startSize=14;startFill=1;edgeStyle=orthogonalEdgeStyle;rounded=0;exitX=1;exitY=0.5;exitDx=0;exitDy=0;entryX=0;entryY=0.5;entryDx=0;entryDy=0;endFill=1;" parent="1" source="k0bJGaQDSedaESL4fua4-67" target="k0bJGaQDSedaESL4fua4-55" edge="1">
          <mxGeometry relative="1" as="geometry">
            <mxPoint x="563.36" y="790" as="sourcePoint" />
            <mxPoint x="623.36" y="820" as="targetPoint" />
          </mxGeometry>
        </mxCell>
        <mxCell id="k0bJGaQDSedaESL4fua4-101" value="" style="endArrow=none;html=1;endSize=12;startArrow=classic;startSize=14;startFill=1;edgeStyle=orthogonalEdgeStyle;rounded=0;endFill=0;" parent="1" source="k0bJGaQDSedaESL4fua4-80" target="k0bJGaQDSedaESL4fua4-59" edge="1">
          <mxGeometry relative="1" as="geometry">
            <mxPoint x="150.36" y="650" as="sourcePoint" />
            <mxPoint x="293.36" y="640" as="targetPoint" />
          </mxGeometry>
        </mxCell>
        <mxCell id="k0bJGaQDSedaESL4fua4-107" value="" style="endArrow=classic;html=1;endSize=12;startArrow=diamondThin;startSize=14;startFill=0;edgeStyle=orthogonalEdgeStyle;rounded=0;entryX=0.5;entryY=0;entryDx=0;entryDy=0;endFill=1;" parent="1" source="k0bJGaQDSedaESL4fua4-43" target="k0bJGaQDSedaESL4fua4-59" edge="1">
          <mxGeometry relative="1" as="geometry">
            <mxPoint x="393.36" y="560" as="sourcePoint" />
            <mxPoint x="564.36" y="560" as="targetPoint" />
          </mxGeometry>
        </mxCell>
        <mxCell id="k0bJGaQDSedaESL4fua4-108" value="1" style="edgeLabel;resizable=0;html=1;align=left;verticalAlign=top;" parent="k0bJGaQDSedaESL4fua4-107" connectable="0" vertex="1">
          <mxGeometry x="-1" relative="1" as="geometry">
            <mxPoint x="-19" y="5" as="offset" />
          </mxGeometry>
        </mxCell>
        <mxCell id="k0bJGaQDSedaESL4fua4-110" value="" style="endArrow=none;html=1;endSize=12;startArrow=classic;startSize=14;startFill=1;edgeStyle=orthogonalEdgeStyle;rounded=0;entryX=-0.004;entryY=0.106;entryDx=0;entryDy=0;entryPerimeter=0;endFill=0;" parent="1" edge="1">
          <mxGeometry x="0.0011" relative="1" as="geometry">
            <mxPoint x="84.00000000000001" y="670" as="sourcePoint" />
            <mxPoint x="313.3600000000001" y="838.7560000000001" as="targetPoint" />
            <Array as="points">
              <mxPoint x="84.00000000000001" y="670" />
              <mxPoint x="84.00000000000001" y="839" />
            </Array>
            <mxPoint as="offset" />
          </mxGeometry>
        </mxCell>
        <mxCell id="k0bJGaQDSedaESL4fua4-113" value="" style="endArrow=none;html=1;endSize=12;startArrow=block;startSize=14;startFill=1;edgeStyle=orthogonalEdgeStyle;rounded=0;exitX=0.5;exitY=0;exitDx=0;exitDy=0;entryX=0.494;entryY=1.015;entryDx=0;entryDy=0;entryPerimeter=0;endFill=0;" parent="1" source="k0bJGaQDSedaESL4fua4-63" target="k0bJGaQDSedaESL4fua4-68" edge="1">
          <mxGeometry relative="1" as="geometry">
            <mxPoint x="463.36" y="1000.0000000000002" as="sourcePoint" />
            <mxPoint x="393.36" y="870" as="targetPoint" />
            <Array as="points">
              <mxPoint x="393.36" y="862" />
            </Array>
          </mxGeometry>
        </mxCell>
        <mxCell id="-XUR18cBoQ-Rtem3kmZL-1" value="*" style="edgeLabel;resizable=0;html=1;align=left;verticalAlign=top;" connectable="0" vertex="1" parent="1">
          <mxGeometry x="373.3599999999998" y="580" as="geometry" />
        </mxCell>
        <mxCell id="-XUR18cBoQ-Rtem3kmZL-6" value="*" style="edgeLabel;resizable=0;html=1;align=left;verticalAlign=top;" connectable="0" vertex="1" parent="1">
          <mxGeometry x="293.3599999999998" y="620" as="geometry" />
        </mxCell>
        <mxCell id="-XUR18cBoQ-Rtem3kmZL-7" value="1" style="edgeLabel;resizable=0;html=1;align=left;verticalAlign=top;" connectable="0" vertex="1" parent="1">
          <mxGeometry x="183.3599999999998" y="615" as="geometry" />
        </mxCell>
        <mxCell id="-XUR18cBoQ-Rtem3kmZL-8" value="1" style="edgeLabel;resizable=0;html=1;align=left;verticalAlign=top;" connectable="0" vertex="1" parent="1">
          <mxGeometry x="93.99999999999979" y="670" as="geometry" />
        </mxCell>
        <mxCell id="-XUR18cBoQ-Rtem3kmZL-9" value="*" style="edgeLabel;resizable=0;html=1;align=left;verticalAlign=top;" connectable="0" vertex="1" parent="1">
          <mxGeometry x="273.3599999999998" y="810" as="geometry">
            <mxPoint x="26" y="2" as="offset" />
          </mxGeometry>
        </mxCell>
        <mxCell id="-XUR18cBoQ-Rtem3kmZL-10" value="*" style="edgeLabel;resizable=0;html=1;align=left;verticalAlign=top;" connectable="0" vertex="1" parent="1">
          <mxGeometry x="593.3599999999998" y="810" as="geometry" />
        </mxCell>
        <mxCell id="-XUR18cBoQ-Rtem3kmZL-11" value="*" style="edgeLabel;resizable=0;html=1;align=left;verticalAlign=top;" connectable="0" vertex="1" parent="1">
          <mxGeometry x="603.3599999999998" y="820" as="geometry">
            <mxPoint x="72" y="-32" as="offset" />
          </mxGeometry>
        </mxCell>
        <mxCell id="-XUR18cBoQ-Rtem3kmZL-12" value="1" style="edgeLabel;resizable=0;html=1;align=left;verticalAlign=top;" connectable="0" vertex="1" parent="1">
          <mxGeometry x="483.36" y="810" as="geometry" />
        </mxCell>
        <mxCell id="-XUR18cBoQ-Rtem3kmZL-15" value="1" style="edgeLabel;resizable=0;html=1;align=left;verticalAlign=top;" connectable="0" vertex="1" parent="1">
          <mxGeometry x="671.36" y="663" as="geometry">
            <mxPoint x="-201" y="-48" as="offset" />
          </mxGeometry>
        </mxCell>
        <mxCell id="-XUR18cBoQ-Rtem3kmZL-16" value="1" style="edgeLabel;resizable=0;html=1;align=left;verticalAlign=top;" connectable="0" vertex="1" parent="1">
          <mxGeometry x="793.36" y="663" as="geometry">
            <mxPoint x="-201" y="-48" as="offset" />
          </mxGeometry>
        </mxCell>
      </root>
    </mxGraphModel>
  </diagram>
</mxfile>
